<svg xmlns="http://www.w3.org/2000/svg" viewBox="0 0 320 220" role="img" aria-labelledby="title desc">
  <title id="title">Reward placeholder</title>
  <desc id="desc">Neon reward card placeholder image</desc>
  <defs>
    <linearGradient id="g" x1="0" y1="0" x2="1" y2="1">
      <stop offset="0" stop-color="#00eaff"/>
      <stop offset=".55" stop-color="#855cff"/>
      <stop offset="1" stop-color="#ff00ff"/>
    </linearGradient>
  </defs>
  <rect width="320" height="220" rx="26" fill="#090d19"/>
  <rect x="16" y="16" width="288" height="188" rx="22" fill="#10182a" stroke="#00eaff" stroke-opacity=".55"/>
  <circle cx="248" cy="44" r="46" fill="#ff00ff" opacity=".18"/>
  <circle cx="82" cy="162" r="58" fill="#00eaff" opacity=".12"/>
  <path d="M92 76h136v40H92z" fill="none" stroke="url(#g)" stroke-width="10" stroke-linejoin="round"/>
  <path d="M112 116h96v54h-96z" fill="none" stroke="url(#g)" stroke-width="10" stroke-linejoin="round"/>
  <path d="M160 76v94M92 116h136" fill="none" stroke="#f8fbff" stroke-width="8" stroke-linecap="round"/>
  <path d="M160 76c-28-28-56-20-52 4 3 18 30 16 52-4Zm0 0c28-28 56-20 52 4-3 18-30 16-52-4Z" fill="none" stroke="url(#g)" stroke-width="10" stroke-linecap="round"/>
</svg>
